<svg width="824" height="824" viewBox="0 0 824 824" fill="none" xmlns="http://www.w3.org/2000/svg">
<g clip-path="url(#clip0_8_1667)">
<path d="M0 0H824V824H0V0Z" fill="#A50036"/>
<path d="M382.197 58.6348L589.802 343.945L236.399 71.6546L432.941 337.137L49.4427 59.05H49.4346L339.219 432.731L73.741 224.909L346.031 587.715L48.4609 369.537L387.561 736.835C484.114 828.264 636.821 826.674 731.427 732.066C826.029 637.463 827.619 484.757 736.194 388.201L382.197 58.6348ZM588.918 417.292C633.005 417.292 677.089 434.11 710.725 467.746C777.997 535.018 777.997 644.092 710.725 711.363C643.453 778.635 534.381 778.635 467.109 711.363C399.837 644.088 399.837 535.016 467.109 467.743C500.745 434.107 544.834 417.289 588.92 417.289L588.918 417.292ZM578.08 450.661C550.613 450.753 518.566 462.334 493.466 484.252C472.328 502.708 460.533 524.51 457.711 543.633C454.889 562.752 460.025 578.679 474.152 590.482C502.404 614.086 563.041 608.483 605.316 571.568C626.453 553.109 638.247 531.31 641.071 512.187C643.894 493.068 638.757 477.141 624.632 465.338C613.154 455.746 596.875 450.596 578.082 450.661H578.08ZM654.642 650.816C640.806 650.864 623.962 656.78 610.963 667.955C600.015 677.367 594.29 688.234 592.983 696.94C591.676 705.647 593.708 711.722 599.926 716.839C612.367 727.069 643.922 725.219 665.817 706.394C676.764 696.985 682.49 686.12 683.794 677.412C685.102 668.702 683.07 662.627 676.853 657.511C671.799 653.355 664.11 650.783 654.643 650.816H654.642Z" fill="white"/>
</g>
<defs>
<clipPath id="clip0_8_1667">
<rect width="824" height="824" rx="185.4" fill="white"/>
</clipPath>
</defs>
</svg>
